<svg width="41" height="41" viewBox="0 0 41 41" fill="none" xmlns="http://www.w3.org/2000/svg">
<path fill-rule="evenodd" clip-rule="evenodd" d="M29.4325 21.0999C27.2012 21.9945 24.7928 22.5463 22.2738 22.6893C21.8393 22.7139 21.4016 22.7264 20.9609 22.7264C20.5203 22.7264 20.0825 22.7139 19.6481 22.6893C17.1285 22.5463 14.7195 21.9943 12.4878 21.0993C7.80445 19.2211 3.90197 15.8323 1.39648 11.5432C5.30172 4.85787 12.6009 0.360001 20.9609 0.360001C29.321 0.360001 36.6201 4.85787 40.5254 11.5432C38.0196 15.8328 34.1165 19.2218 29.4325 21.0999Z" fill="white"/>
<path d="M12.4877 22.8403C11.9482 22.6239 11.419 22.3875 10.9011 22.1319C9.21811 23.306 7.79534 24.7683 6.724 26.4366C8.54499 29.2722 11.3813 31.5126 14.7852 32.7544C16.4072 33.3461 18.158 33.711 19.9893 33.8056H21.8976C23.7285 33.711 26.9464 35.5072 22.2737 40.0399C25.678 38.7983 33.3417 29.2725 35.1629 26.4366C34.0946 24.773 32.6769 23.3143 31.0002 22.142C30.4883 22.3939 29.9654 22.6272 29.4324 22.8409C27.2012 23.7355 24.7927 24.2873 22.2737 24.4303C21.8392 24.4549 21.4015 24.4674 20.9608 24.4674C20.5202 24.4674 20.0824 24.4549 19.648 24.4303C17.1284 24.2873 14.7194 23.7353 12.4877 22.8403Z" fill="white"/>
<rect x="11.527" y="8.68244" width="18.9093" height="6.68764" rx="3.34382" fill="#162550"/>
<ellipse cx="26.1961" cy="11.9892" rx="1.23811" ry="1.22607" fill="#04FED1"/>
<ellipse cx="20.9433" cy="28.4852" rx="1.23811" ry="1.22607" fill="#162550"/>
<ellipse cx="15.9918" cy="11.9892" rx="1.23811" ry="1.22607" fill="#04FED1"/>
<ellipse cx="15.9918" cy="28.4852" rx="1.23811" ry="1.22607" fill="#162550"/>
<ellipse cx="25.8964" cy="28.4852" rx="1.23811" ry="1.22607" fill="#162550"/>
</svg>
